# xmcd
#
# Track frame offsets:
#	150
#	12462
#	24218
#	36115
#	58052
#	75431
#	93700
#	103007
#	120479
#	133333
#	146627
#	158134
#	178364
#	190300
#	209427
#	223756
#
# Disc length: 3272 seconds
#
# Revision: 0
# Processed by: cddbd v1.5.2PL0 Copyright (c) Steve Scherf et al.
# Submitted via: dBpowerAMP V4.0
#
DISCID=ea0cc610
DTITLE=Various Artist - Hudson and Harrigan Holiday Hits
DYEAR=2007
DGENRE=Country
TTITLE0=Hudson and harrigan - Politically Correct Christmas
TTITLE1=Pat Green - Winter Wonderland
TTITLE2=Lann Ries - Rockin' Around the Christmas Tree
TTITLE3=Newsong - The Christmas Shoes
TTITLE4=SheDaisy - Deck the Halls
TTITLE5=Vince Gill - Have Yourself a Merry Little Christmas
TTITLE6=Hudson and Harrigan - Jim-Bob's Rum Cake Recipe
TTITLE7=Rascal Flatts - God Rest Ye Merry Gentleman
TTITLE8=Travis Tritt - Winter Wonderland
TTITLE9=The Judds - Silver Bells
TTITLE10=Jo Dee Messina - Sleighride
TTITLE11=Clint Black - Christmas With You
TTITLE12=Clay Walker - Feliz Navidad
TTITLE13=Wynonna - O' Holy Night
TTITLE14=Steve Wariner - Christmas in Your Arms
TTITLE15=Hudson and Landry - Frontier Christmas
EXTD=
EXTT0=
EXTT1=
EXTT2=
EXTT3=
EXTT4=
EXTT5=
EXTT6=
EXTT7=
EXTT8=
EXTT9=
EXTT10=
EXTT11=
EXTT12=
EXTT13=
EXTT14=
EXTT15=
PLAYORDER=
